<?xml version="1.0" standalone="no"?><!DOCTYPE svg PUBLIC "-//W3C//DTD SVG 1.1//EN" "http://www.w3.org/Graphics/SVG/1.1/DTD/svg11.dtd"><svg t="1514175790714" class="icon" style="" viewBox="0 0 1024 1024" version="1.1" xmlns="http://www.w3.org/2000/svg" p-id="4139" xmlns:xlink="http://www.w3.org/1999/xlink" width="200" height="200"><defs><style type="text/css"></style></defs><path d="M512 512m-512 0a512 512 0 1 0 1024 0 512 512 0 1 0-1024 0Z" fill="#FE7700" p-id="4140"></path><path d="M343.552 524.8c-54.272-1.024-102.4-19.968-148.48-47.104-10.24-6.144-12.8-11.776-7.168-22.528C230.4 372.736 283.136 297.984 359.936 243.2c83.456-59.392 172.544-55.808 261.12-12.288 17.92 8.704 31.232 11.776 51.712 3.072 52.736-23.04 105.472-16.384 155.648 10.752 15.872 8.704 29.696 21.504 39.936 36.864 18.944 28.16 17.92 29.696-13.312 37.376-29.184 7.68-57.344 17.408-79.872 38.912-7.168 6.656-11.776 13.312-7.68 24.576 39.424 106.496 7.68 196.096-66.56 274.944-39.936 41.984-86.528 76.8-137.728 103.424-12.288 6.656-17.408 11.776-16.384 27.648 2.56 42.496-19.456 75.264-49.152 102.912-11.776 10.752-20.992 6.144-27.648-6.656-11.776-23.552-20.992-48.128-27.136-73.728-3.072-12.288-9.728-17.92-21.504-21.504-40.96-12.288-82.944-17.408-123.904-27.136-8.192-2.048-20.48-1.536-22.016-10.752s9.728-15.36 17.408-20.48c24.576-14.848 53.248-21.504 81.92-17.92 17.92-5.632 36.864-4.608 53.76 4.096 15.36 7.68 27.648 4.096 39.936-6.144 12.288-9.216 23.552-19.456 34.304-30.72 6.144-5.632 8.704-13.312 8.192-21.504-2.048-12.8-12.288-10.24-20.48-10.24-34.304 0-63.488-15.36-93.184-28.672-5.12-2.56-10.752-5.632-10.24-12.8s7.168-8.704 12.8-10.752c15.36-4.608 30.72-8.704 46.08-14.336 6.656-2.56 15.872-3.584 17.408-11.264 2.56-10.24-9.216-11.264-14.336-17.408-2.56-2.048-4.608-5.12-4.608-8.704 2.56-6.656 8.192-7.168 13.824-8.192 18.944 1.536 37.888 4.096 55.808-4.096 5.12-2.56 11.776-4.096 15.872 2.048 3.072 5.12 2.56 11.776-0.512 16.896-7.68 14.336-19.968 25.6-34.304 33.28-20.992 11.776-44.544 17.92-67.584 24.576 68.608 26.624 123.904 0.512 175.616-42.496 7.68-6.656 16.384-22.016 26.112-13.824s-3.072 20.992-8.704 30.72c-10.752 17.408-25.6 32.768-43.008 43.52-15.36 9.216-27.648 23.552-34.304 40.448-14.336 33.28-39.936 60.416-72.192 76.8-12.8 7.68-28.16 8.704-41.984 3.584-31.232-11.776-62.976-7.168-95.232-3.584 26.624 10.24 53.76 18.432 81.408 24.576 28.672 6.656 47.104 19.968 52.224 50.688 2.048 13.824 6.144 32.768 22.528 33.792s22.016-17.408 27.648-30.208c6.656-15.872 16.896-33.28 1.024-51.2-6.144-7.168 1.536-10.24 6.144-12.8 45.056-24.064 84.48-54.784 122.368-88.576 49.664-44.032 89.088-95.232 103.424-161.28 12.288-55.808 8.704-109.056-26.624-156.672-1.536-2.048-3.072-4.608-4.608-7.168-2.56-4.608-5.632-9.728-0.512-13.824 3.584-3.072 8.192 1.024 11.776 3.072 8.704 4.608 11.776 19.456 23.552 16.896 9.728-2.048 15.36-13.312 23.04-19.456 14.848-11.776 31.744-20.992 49.152-28.16 19.456-7.68 19.968-11.776 3.072-25.088-36.352-29.184-77.824-34.816-121.856-27.136-16.384 3.072-34.816 2.048-42.496 24.064-3.584 10.24-14.336 2.048-20.48-1.536-23.04-15.36-48.64-26.624-75.264-34.304-41.472-11.776-84.992-12.288-126.464-1.536 17.92 12.8 32.256 25.088 38.912 43.52 7.168 17.408 6.144 36.352-1.536 53.248-15.872 33.28-49.152 50.176-87.04 44.544-34.304-5.12-56.832-30.208-64-72.704-9.216 3.584-17.408 9.216-23.552 17.408-33.28 36.352-62.464 75.776-88.064 117.76-8.704 14.848-6.144 22.528 9.216 30.72 78.848 41.984 151.04 25.6 220.16-22.016 35.84-24.576 67.584-53.248 90.112-91.136 4.096-6.656 7.168-16.384 16.896-14.848 10.752 1.536 13.824 12.288 16.896 20.992 28.672 78.848-19.456 150.528-104.448 155.648-16.896 1.024-33.28 2.56-50.176 5.12-4.096 1.024-7.68 3.072-11.264 5.632-2.048 1.024-4.096 1.536-6.144 2.048-6.656 1.024-12.8 1.024-19.456 1.024-9.728-0.512-19.456 4.608-29.696 1.024-4.096-2.56-2.048-9.216-6.144-11.776z" fill="#202020" p-id="4141"></path><path d="M515.072 659.456c4.096 5.632 3.072 13.312-1.536 17.92-15.36 18.432-33.28 34.304-53.248 47.104-8.704 6.656-20.992 6.656-29.696-0.512-15.872-11.776-36.352-8.192-54.784-10.752-9.728-16.384-22.528-26.624-44.032-24.576-41.984 3.072-84.48 2.048-125.44-10.24-18.432-5.12-36.864-12.8-41.984-33.792-5.632-22.528 8.704-37.376 24.064-50.688 32.768-28.16 73.728-46.08 116.736-50.176 14.848-1.024 29.184-7.68 39.424-18.944 5.12 1.536 5.632 5.632 6.144 9.728 0 7.68-6.656 9.728-11.264 13.824-2.048 1.536-4.096 3.584-6.144 5.632-4.608 4.096-8.704 9.216-11.776 14.848-2.048 5.632-3.072 11.264-3.072 17.408 1.024 54.272 79.872 120.32 133.12 111.616 15.36-2.048 29.184-10.752 38.4-23.04 6.656-7.168 11.264-18.944 25.088-15.36z" fill="#2E2E2E" p-id="4142"></path><path d="M410.112 520.192c27.648-3.072 55.296-4.096 82.944-9.216 72.704-13.312 106.496-105.984 58.88-167.936-20.992 43.52-52.736 77.312-91.136 104.96-27.136 19.968-57.344 35.84-89.088 46.592-57.856 18.944-111.104 5.632-161.792-23.552-6.144-3.584-10.24-6.144-6.656-15.36 15.872-40.448 90.112-133.12 132.096-162.816-2.56 22.016 0.512 40.448 13.312 56.32 12.288 15.36 30.72 25.088 50.688 27.136 36.352 3.072 68.096-17.408 78.336-50.176 10.24-33.792-5.12-61.952-48.64-86.528 55.296-28.16 131.584-15.872 230.912 37.888-2.048-8.704 2.56-17.408 10.24-20.992 46.592-26.112 134.656-12.288 172.032 26.624 12.288 12.8 14.336 18.944-7.168 24.064-34.816 8.704-61.44 32.256-85.504 58.88-10.752-11.776-17.408-25.6-32.768-31.232 17.92 22.528 32.768 46.08 38.912 74.24 13.824 58.368 3.584 119.808-27.648 171.008-49.664 84.48-125.952 140.288-208.384 188.416 23.552 11.264 9.216 31.744 6.144 48.128-3.584 18.944-19.456 32.256-32.768 45.568-7.68 7.68-11.264 1.024-15.36-3.584-10.24-13.312-16.896-29.184-19.456-46.08-3.584-19.456-14.848-30.208-34.304-34.816-36.864-9.216-73.216-19.968-114.176-31.744 33.28-15.36 64.512-14.848 95.744-10.752 22.016 3.072 41.472 19.456 66.048 2.56 31.232-21.504 57.344-45.568 69.632-81.92 3.584-12.288 11.776-23.04 23.552-28.672 30.72-15.872 52.736-40.448 65.536-80.384-64.512 64-131.072 102.4-220.672 61.44 24.064-7.68 47.616-13.824 70.144-23.04s44.032-22.016 49.664-54.784c-25.088 12.8-47.616 16.896-70.656 10.752-10.24-4.096-20.992 0.512-31.232-4.096-7.68-2.56-17.92-4.608-17.408-16.896z" fill="#D6D6D6" p-id="4143"></path><path d="M515.072 659.456c-9.216 3.584-14.848 11.776-21.504 18.432-54.784 38.4-129.536 15.872-151.552-45.056 27.136-36.864 59.392-68.096 104.96-81.408h3.072c10.752 3.584 25.6 8.192 25.088 19.456-0.512 9.728-15.872 13.312-26.624 16.384-19.456 6.144-38.912 11.776-62.464 18.944 33.792 20.992 67.072 33.792 103.936 37.376 5.12 0.512 10.24 0.512 15.36 0 16.384-2.048 15.36 5.12 9.728 15.872z" fill="#FDB119" p-id="4144"></path><path d="M409.6 248.832c35.328 0.512 62.976 27.136 62.976 59.392s-29.184 58.368-64.512 58.368S344.576 339.456 345.088 307.2 374.784 248.32 409.6 248.832z" fill="#FBFBFB" p-id="4145"></path><path d="M334.848 546.816c5.12-4.096 10.24-8.192 14.848-12.288 9.728-2.048 18.432-8.704 29.184-6.144 6.144 6.144 16.384 6.144 23.04 1.024 1.024-0.512 2.56-1.024 4.096-1.024 13.824 4.608 29.696 4.608 39.936 17.408 1.536 1.536 3.072 3.072 4.096 5.12l0.512-0.512c-13.312 4.608-27.648 7.68-39.424 15.872-13.824 9.728-27.648 2.048-40.96-3.072-10.752-7.168-28.16-1.024-35.328-16.384z" fill="#F9B521" p-id="4146"></path><path d="M485.888 451.072c1.536 14.336 13.312 28.16 4.608 35.328-13.824 10.752-25.088-7.168-41.472-11.264 12.8-8.192 23.552-15.36 36.864-24.064z" fill="#F2F1F1" p-id="4147"></path><path d="M513.536 425.472c3.072 9.216 5.632 14.336 7.168 19.968 1.536 8.192 11.264 20.992-1.536 24.064-10.24 2.048-22.528-10.24-25.6-20.48s12.288-12.8 19.968-23.552zM397.312 496.64c12.8-5.632 23.04-9.728 32.256-14.848 11.264-6.144 16.384 1.024 19.456 9.216 5.12 12.8-6.656 10.24-12.288 11.264-13.312 3.072-27.136 1.024-39.424-5.632z" fill="#F1F0F0" p-id="4148"></path><path d="M537.6 406.528c-2.048-4.608-2.048-10.24 1.024-14.336 3.072-4.096 5.632-10.24 10.752-9.216 7.168 1.536 7.168 9.216 5.632 14.336-3.072 10.24-1.024 21.504-8.192 30.72-9.216-4.608-14.336-10.752-9.216-21.504z" fill="#290404" p-id="4149"></path><path d="M537.6 406.528l9.216 21.504c-1.536 5.12 1.024 16.384-9.728 10.24-7.168-4.096-18.944-8.704-15.872-19.968 1.024-5.12 4.608-16.384 16.384-11.776z" fill="#E8E5E5" p-id="4150"></path><path d="M445.952 546.304c-13.312-5.632-26.624-11.776-39.936-17.408 0.512-3.584-0.512-7.68 4.608-8.704 11.776 17.408 33.792 11.776 48.64 21.504-4.608 2.048-10.24-1.024-13.312 4.608z" fill="#645E4D" p-id="4151"></path><path d="M401.92 529.92c-8.192 14.336-15.872 10.752-23.04-1.024 7.68-1.536 15.872-1.024 23.04 1.024z" fill="#FCE7AB" p-id="4152"></path><path d="M322.56 648.192c5.632 9.216 11.776 18.432 19.456 30.72-52.736 1.536-103.424 5.12-151.04-16.384-19.456-8.704-24.576-25.6-12.8-41.472 32.768-43.008 79.36-59.904 132.096-68.608-17.408 25.088-7.68 48.64-0.512 72.192-3.072 10.752-12.288 16.384-19.968 25.6 11.776-7.68 21.504-11.264 32.768-2.048z" fill="#FEFEFE" p-id="4153"></path><path d="M318.464 564.224c3.072-6.144 7.68-11.264 13.824-14.848 9.728 6.656 22.528 5.12 32.768 10.752 28.16 12.8 29.696 16.384 6.144 38.4-10.752 10.24-17.408 27.648-36.864 26.624-14.848-17.408-23.04-37.376-15.872-60.928z" fill="#F4A818" p-id="4154"></path><path d="M318.464 564.224c-5.12 23.552 11.776 41.472 17.92 61.952 2.56 2.56 6.656 1.024 8.704 4.608 26.112 45.568 85.504 87.04 138.752 51.2 3.072-1.536 6.656-3.072 10.24-3.584-22.528 28.672-62.976 37.376-98.304 18.432-38.4-20.48-63.488-53.76-79.872-92.672-6.144-13.312-7.168-27.136 2.56-39.936z" fill="#BF680F" p-id="4155"></path><path d="M322.56 648.192c-12.288 1.024-25.088 2.048-39.424 3.072 6.144-13.312 17.408-18.432 26.624-26.112 5.12 7.68 10.752 14.336 12.8 23.04z" fill="#515151" p-id="4156"></path><path d="M362.496 563.2c-10.24-4.608-22.528-4.096-30.72-13.824 0-1.536 1.024-2.048 2.56-2.56 11.776 5.632 26.112 4.096 36.864 12.288-1.536 4.096-5.632 3.072-8.704 4.096z" fill="#623306" p-id="4157"></path><path d="M791.552 260.608c-22.016 2.048-40.448-3.584-58.368 1.536-14.848 4.096-29.696 8.192-40.448 20.48-3.584 4.608-6.144 10.752-13.312 9.216-3.584-0.512-5.632-4.608-6.144-8.192-1.536-8.704 2.56-13.824 9.728-17.92 17.92-9.728 37.888-14.848 58.368-15.872 17.408-1.024 34.816 3.072 50.176 10.752z" fill="#3A3A3A" p-id="4158"></path><path d="M362.496 563.2c3.072-1.536 6.144-2.56 9.216-4.096 16.896 7.168 32.768 9.728 49.152-2.56 8.192-6.144 19.456-5.632 29.696-5.632-41.984 17.408-72.704 49.664-104.96 79.36-4.608 1.536-9.216 4.096-8.704-4.608 14.848-14.336 29.184-28.672 44.032-42.496 7.68-7.168 4.096-10.752-3.584-13.824-5.12-1.536-9.728-3.584-14.848-6.144z" fill="#351303" p-id="4159"></path><path d="M416.256 265.728c-13.824 13.824-20.48 27.648-5.632 40.96s27.648 3.584 38.912-9.216c4.608 35.84-21.504 60.416-51.712 51.712-4.096-1.024-12.288-2.048-5.632-8.704s9.216-13.312 2.56-20.992c-8.704-9.728-16.896-2.048-24.576 3.072-8.704-35.328 7.168-55.808 46.08-56.832z" fill="#202020" p-id="4160"></path></svg>