<?xml version="1.0" standalone="no"?><!DOCTYPE svg PUBLIC "-//W3C//DTD SVG 1.1//EN" "http://www.w3.org/Graphics/SVG/1.1/DTD/svg11.dtd"><svg t="1514175780523" class="icon" style="" viewBox="0 0 1024 1024" version="1.1" xmlns="http://www.w3.org/2000/svg" p-id="3866" xmlns:xlink="http://www.w3.org/1999/xlink" width="200" height="200"><defs><style type="text/css"></style></defs><path d="M0 512A512 512 0 1 0 512 0 512 512 0 0 0 0 512z" fill="#1CD39B" p-id="3867"></path><path d="M439.317161 562.601977c-4.508176-6.532255-11.592453-3.58814-17.66469-5.520216-37.721473-12.604492-77.467026-9.200359-116.200539-11.132435-32.753279-1.472058-65.414555 0.552022-98.167835-4.048158a24.288949 24.288949 0 0 1-25.116981-22.080863 20.884816 20.884816 0 0 1 13.06451-20.608805c7.544295-2.576101 8.096316-6.072237 5.060198-13.616531a27.601078 27.601078 0 0 1 14.536568-36.249416 36.801438 36.801438 0 0 1 6.624258-2.02408 14.720575 14.720575 0 0 1 17.572687 6.532256c9.200359 10.580413 11.592453-3.956155 17.572686-4.968194 9.200359-14.168553 44.345732-26.681042 59.434322-21.160827l29.625157-3.036119c-16.100629-35.237376-1.472058-64.402516 36.249416-72.406828a78.663073 78.663073 0 0 0 23.184906-9.200359 128.805031 128.805031 0 0 1 71.94681-18.400719 19.504762 19.504762 0 0 0 17.572687-6.532255c15.640611-16.100629 56.858221-14.536568 65.414555 15.088589a66.242588 66.242588 0 0 0 25.208985 31.74124c31.189218 25.116981 56.858221 55.202156 63.850494 95.591734a332.500988 332.500988 0 0 1 7.084277 55.202156c0 7.084277-5.060198 10.580413-10.028392 13.616532a69.830728 69.830728 0 0 1-28.245103 10.028392c-20.608805 2.576101-41.21761 6.072237-61.826416 7.544295a9.200359 9.200359 0 0 1-7.544294-2.024079 13.248518 13.248518 0 0 0-14.168554 6.072237c-5.980234 9.016352-17.112668 10.212399-28.337107 12.604492-17.572686 3.496137-35.697394-1.564061-53.362084-0.552021-4.508176 5.060198-9.200359 5.520216-13.524528-0.460018z" fill="#303030" p-id="3868"></path><path d="M226.420845 607.22372c-0.460018 34.777358-23.092902 60.906379-60.90638 69.002695C147.20575 680.826595 147.20575 680.826595 149.965858 699.963342c4.508176 27.601078 4.508176 27.601078-23.644924 31.189219-19.136748 2.024079-19.136748 2.024079-22.632884-16.100629A84.091285 84.091285 0 0 1 101.203953 699.227314c-1.01204-12.512489-4.508176-21.620845-19.596765-23.092902-10.580413-1.01204-8.556334-11.132435-8.556334-18.400719 0.552022-8.556334 7.544295-6.072237 12.05247-5.060198 6.532255 1.01204 7.544295-1.01204 6.072238-6.992273-5.060198-25.669003-9.200359-51.338005-14.07655-77.007008-1.01204-5.520216-1.564061-10.580413-10.120396-9.20036-6.992273 1.01204-6.532255-6.992273-8.004312-11.500449s-1.01204-8.096316 4.508176-9.200359 7.544295-4.508176 6.072237-10.580413c-1.564061-7.544295 1.472058-11.040431 9.200359-11.040432s16.100629-1.472058 24.104942-2.024079 14.628571 0 16.100629 9.20036c1.01204 5.520216 6.072237 4.048158 10.120395 4.048158a138.557412 138.557412 0 0 1 42.781671 5.980233A78.203055 78.203055 0 0 1 226.420845 607.22372z" fill="#FEFEFE" p-id="3869"></path><path d="M811.195687 561.221923a65.598562 65.598562 0 0 1 42.689668 52.350045 144.077628 144.077628 0 0 1 1.748068 41.585624 73.602875 73.602875 0 0 1-86.575382 63.390476c-34.685355-4.508176-68.910692-8.556334-103.68805-12.604492-24.104942-2.944115-30.637197-11.040431-30.637197-35.697395v-73.602875c0-16.65265 5.980234-24.196945 23.092902-26.221024 40.757592-4.968194 82.067206-9.200359 122.824798-14.07655a14.812579 14.812579 0 0 1 1.01204 15.08859c-6.072237 21.160827-12.052471 42.321653-18.400719 63.390476a18.400719 18.400719 0 0 1-2.024079 5.520215c-2.024079 4.60018-3.58814 10.120395-9.20036 10.120396s-5.520216-6.072237-6.992273-10.120396a62.746451 62.746451 0 0 1-2.5761-9.200359c-1.472058-7.084277-5.520216-9.200359-12.512489-7.544295s-8.096316 5.520216-6.624259 11.592453c3.58814 15.548607 6.072237 31.189218 10.120395 46.737826a17.756694 17.756694 0 0 0 19.136748 14.628571c10.580413 0 14.07655-4.508176 17.112668-13.06451 9.200359-28.1531 16.560647-56.858221 26.129021-85.103324 2.024079-5.520216 2.484097-13.06451 11.040431-13.524529 5.060198 4.508176 4.048158 11.040431 4.048159 17.112669v80.503144a27.601078 27.601078 0 0 0 1.564061 12.604493c18.400719-8.096316 25.576999-24.656963 28.613117-42.781671a88.32345 88.32345 0 0 0-4.968194-48.301887 46.001797 46.001797 0 0 0-19.136747-24.196945 21.160827 21.160827 0 0 1-9.20036-9.20036c-1.01204-4.60018-0.552022-8.556334 4.048158-10.120395z" fill="#FDFEFD" p-id="3870"></path><path d="M239.209344 454.40575c-14.628571-5.520216-25.208985-3.496137-32.201258 5.980234s-7.084277 18.400719 2.484097 32.753279c1.01204 1.472058 1.564061 2.484097 3.036119 4.508176-13.06451 3.496137-26.129021 6.532255-30.177179 21.620845-1.472058-12.052471-3.496137-24.656963-5.060198-36.801438v-2.484097c-18.400719-38.273495 1.564061-77.55903-4.048158-116.292542-1.932075-15.088589 11.592453-26.681042 13.156514-41.769632a203.327942 203.327942 0 0 0 5.980234-35.145373c-0.460018-8.556334 5.520216-12.144474 13.06451-12.604492a115.46451 115.46451 0 0 1 43.793711 6.532255 12.052471 12.052471 0 0 1 8.372327 16.192632c-2.576101 12.604492-6.072237 24.656963-8.556334 36.801438-1.01204 5.980234-3.036119 6.992273-9.20036 5.520216a105.620126 105.620126 0 0 0-19.044744-3.036119 4.60018 4.60018 0 0 0-5.612219 3.496137c-0.460018 3.496137 2.024079 4.968194 4.60018 5.520215h3.496136c24.104942 4.048158 27.14106 8.556334 21.160827 31.74124a156.40611 156.40611 0 0 0-6.072237 30.729201c-0.460018 4.968194-2.024079 6.532255-7.544295 5.980233a75.902965 75.902965 0 0 0-26.129021 1.564061c-3.036119 1.01204-5.612219 1.472058-5.060197 5.520216s3.496137 4.048158 6.532255 3.496136c6.072237 0 12.052471-1.472058 18.400719-1.472057 16.100629 0 21.620845 6.532255 18.400718 22.632884-1.01204 3.036119-2.024079 5.980234-3.036118 8.556334z" fill="#8CF13C" p-id="3871"></path><path d="M439.317161 562.601977c4.508176 0.460018 9.200359 0.460018 13.524528 1.012039 0.552022 0.460018 1.564061 1.01204 2.024079 1.472058 43.333693 13.06451 59.434322 34.685355 56.858221 78.019047-2.024079 33.673315-25.669003 57.318239-64.402516 64.402516a144.721653 144.721653 0 0 1-29.71716 3.036119c-8.004313 0-12.052471-3.496137-11.592453-11.592453 1.564061-42.781671 3.036119-85.471339 4.60018-128.805032 0.460018-7.544295 4.968194-9.200359 11.040431-9.200359s12.052471 0.460018 18.400719 1.012039z m-60.906379 99.08787V570.422282c0-5.980234-2.024079-14.536568 9.200359-14.07655s13.156514 5.520216 12.604492 15.08859c-1.472058 38.733513-2.484097 78.019048-4.048158 116.75256 0 8.096316 1.01204 19.136748-9.200359 20.608805s-11.500449-9.200359-14.536568-16.100629A103.504043 103.504043 0 0 0 361.758131 671.626235v24.656964a12.052471 12.052471 0 0 1-11.500449 14.536567c-24.196945 5.060198-24.656963 5.520216-25.669003-19.136747-2.024079-40.757592-3.58814-81.975202-5.520215-122.732794-0.552022-10.120395 3.496137-13.616532 13.524528-13.064511 25.669003 1.472058 25.669003 1.01204 26.681042 27.601078a290.363342 290.363342 0 0 0 13.616532 77.55903 24.748967 24.748967 0 0 0 5.520216 0z" fill="#FDFEFE" p-id="3872"></path><path d="M265.706379 555.5177a20.332794 20.332794 0 0 1 23.092902 17.112668c9.200359 41.309614 20.148787 82.803235 29.717161 123.836838 1.564061 5.980234 2.484097 12.052471-6.072237 14.07655s-13.524528-0.552022-14.536568-9.20036c-1.01204-6.072237-2.484097-11.592453-3.036119-17.66469-1.01204-10.580413-5.060198-15.088589-16.560646-14.07655-7.544295 0.552022-11.592453 2.024079-12.604493 10.120396a187.779335 187.779335 0 0 1-5.520215 23.092902c-2.024079 8.096316-6.072237 12.604492-15.640611 10.580413-30.7292-6.072237-31.189218-2.024079-24.104942-32.661276 8.556334-36.801438 18.400719-73.602875 26.589039-110.404312a16.284636 16.284636 0 0 1 18.676729-14.812579z" fill="#FEFEFE" p-id="3873"></path><path d="M811.195687 561.221923l-3.036118 9.200359a10.212399 10.212399 0 0 1-2.576101 14.07655h-1.012039c-12.052471 32.753279-20.608805 66.426595-31.189219 99.639892-2.944115 9.200359-4.968194 18.400719-18.400719 17.66469-20.608805-1.564061-23.644924-3.036119-27.601078-19.688769s-7.544295-32.661276-11.132435-49.313926c-1.01204-5.520216-2.944115-13.06451 6.072238-14.07655s19.136748-7.544295 22.632884 7.084277a86.207367 86.207367 0 0 0 7.544294 22.632884c9.200359-30.7292 18.400719-61.366397 27.601079-92.555616 5.612219-18.400719 11.132435-36.801438 16.65265-55.202156a24.932974 24.932974 0 0 1 29.717161-17.112669c7.544295 2.024079 5.980234 7.084277 3.956154 12.144475-5.980234 21.620845-12.512489 43.241689-19.044743 64.402516z" fill="#8CF13C" p-id="3874"></path><path d="M583.6708 645.1292c1.01204 17.112668 1.564061 34.225337 2.5761 51.798024 0.460018 6.532255 0.460018 12.052471-9.200359 12.052471s-8.004313-5.520216-8.004313-11.040432v-27.601078c0-4.508176-1.01204-7.544295-6.532255-8.004313a6.992273 6.992273 0 0 0-8.556334 4.508177v1.012039c-2.576101 10.580413-6.072237 20.608805-8.556334 31.189218a9.752381 9.752381 0 0 1-10.580414 8.556335 17.572686 17.572686 0 0 1-2.484097-0.552022c-29.717161-5.980234-27.601078-2.484097-21.160826-31.189218s13.616532-59.342318 20.148787-88.507458c2.484097-10.580413 6.532255-15.088589 18.400718-14.076549 30.7292 2.484097 30.7292 1.932075 32.201258 32.661275 0 13.06451 1.472058 26.129021 2.024079 39.745553h-0.552021z" fill="#FDFEFE" p-id="3875"></path><path d="M672.730279 516.324169c7.084277-9.200359 14.628571-18.400719 20.700808-28.245103a109.208266 109.208266 0 0 1 49.773944-41.769632c10.580413-4.968194 20.608805-10.580413 30.729201-16.100629 3.036119-1.472058 6.532255-2.484097 9.200359 0s0.552022 5.520216-1.012039 7.544295c-19.596765 28.705121-37.721473 57.870261-58.8823 85.103324-12.052471 15.088589-32.201258 20.608805-48.761905 29.625157-8.556334 4.60018-16.100629 12.604492-27.601078 11.132435a9.200359 9.200359 0 0 1-1.564061-12.144474 75.442947 75.442947 0 0 1 27.601078-35.145373z" fill="#3D3E3E" p-id="3876"></path><path d="M316.032345 428.184726a180.143037 180.143037 0 0 0-59.434322 21.160827c-1.472058-14.628571-1.01204-29.717161-2.024079-44.253729s8.556334-26.221024 10.120396-40.297574c1.01204-8.004313 1.01204-19.136748 13.06451-20.148787 14.628571-0.920036 30.7292-0.920036 40.757592 12.144474 7.084277 9.200359 0 20.148787 0 30.177179 0 3.036119-5.060198 1.01204-7.544295 0l-23.644923-4.508176c-3.58814 0-9.200359-1.01204-9.20036 4.508176s4.968194 5.060198 8.556335 5.060198a48.945912 48.945912 0 0 1 29.625157 7.544294c8.740341 8.004313-2.852111 19.044744-0.276011 28.613118zM82.803235 380.434861c0-12.604492 5.520216-19.136748 14.076549-16.100629a101.203953 101.203953 0 0 1 60.354358 46.737826c2.576101 4.60018 6.624259 10.580413 2.024079 15.64061s-9.200359 1.01204-14.536568-0.460018a102.584007 102.584007 0 0 1-54.190117-29.71716A21.896855 21.896855 0 0 1 82.803235 380.434861z" fill="#8CF13B" p-id="3877"></path><path d="M672.730279 516.324169c-8.004313 11.500449-16.100629 23.644924-24.104942 35.145373-8.556334 7.544295-19.136748 5.612219-28.705121 5.060197-19.136748-1.472058-38.181491-2.024079-57.318239-2.484097-5.520216 0-12.144474 0-15.08859-7.084276 0-1.01204 0.460018-1.472058 0.460018-2.484097 21.160827-3.036119 41.769632-7.084277 62.930458-9.20036A73.602875 73.602875 0 0 0 656.169632 515.220126c5.520216 0.460018 11.040431 0.460018 16.560647 1.012039z" fill="#767676" p-id="3878"></path><path d="M125.308895 432.416891a123.836837 123.836837 0 0 1 19.136747 2.484097c9.200359 2.024079 10.580413 7.544295 5.520216 14.628572a32.845283 32.845283 0 0 1-28.705121 14.536568 53.730099 53.730099 0 0 1-26.129021-6.992274c-8.556334-4.60018-9.200359-12.144474-0.552021-17.66469a59.158311 59.158311 0 0 1 30.7292-6.992273z m155.486074-100.283917a17.296676 17.296676 0 0 1-11.040432-2.576101c-7.544295-3.496137-9.200359-7.544295-3.036118-14.536568a80.13513 80.13513 0 0 1 41.21761-25.208984c11.592453-2.024079 16.100629 3.58814 12.604492 14.07655a49.589937 49.589937 0 0 1-39.745552 28.245103z" fill="#8BF13B" p-id="3879"></path><path d="M547.973405 546.501348c33.765319 2.484097 67.438634 4.968194 101.203953 4.508176a22.448877 22.448877 0 0 0-1.932075 11.592453c-32.753279 0-64.954537-2.576101-97.155795-4.60018a6.256244 6.256244 0 0 1-7.084277-5.520216c-1.104043-3.036119 0.920036-5.520216 4.968194-5.980233z" fill="#5E605F" p-id="3880"></path><path d="M729.128482 414.660198c4.508176-6.072237-2.484097-19.136748 11.040431-20.148787 6.072237-0.552022 8.556334 4.508176 7.084277 9.200359-2.484097 6.992273 2.484097 18.400719-9.20036 20.148787-6.440252 1.380054-8.924349-3.220126-8.924348-9.200359z" fill="#3D4341" p-id="3881"></path><path d="M704.471518 410.61204c0-6.072237 1.472058-11.592453 7.544295-10.580414 11.040431 2.024079 8.096316 13.06451 10.580413 20.148787a6.348248 6.348248 0 0 1-3.496136 8.004313 6.992273 6.992273 0 0 1-3.58814 0.552022c-12.052471-0.552022-7.544295-12.052471-11.040432-18.400719z" fill="#3D4240" p-id="3882"></path><path d="M685.886792 414.660198c6.992273-0.552022 19.596765 17.112668 17.112669 23.092902-1.564061 3.58814-4.60018 6.532255-8.556334 4.600179a28.245103 28.245103 0 0 1-14.628572-20.700808 6.992273 6.992273 0 0 1 6.072237-6.992273z" fill="#3C4240" p-id="3883"></path><path d="M688.370889 450.81761a5.796226 5.796226 0 0 1-5.060197 6.532255H680.826595c-7.084277-2.024079-15.088589-4.048158-17.112669-12.604492a6.808266 6.808266 0 0 1 5.060198-8.096316h1.472057c5.060198-0.920036 17.66469 9.200359 18.124708 14.168553z" fill="#3D3F3F" p-id="3884"></path><path d="M490.103145 506.019766A285.855166 285.855166 0 0 0 377.214735 504.731716a10.672417 10.672417 0 0 1-13.616532-6.532255c0-0.552022-0.552022-1.01204-0.552022-1.564061a107.092183 107.092183 0 0 1-4.968194-58.8823c1.01204-4.968194 3.036119-4.508176 7.544295-3.956155 18.400719 2.484097 21.620845 0 30.177179-16.100629a158.890207 158.890207 0 0 1 35.697394-47.841869c3.036119-2.484097 7.544295-4.508176 6.072238-9.200359s-5.520216-5.520216-9.20036-6.532255-8.096316-1.472058-14.07655-3.036119a92.003594 92.003594 0 0 1 45.265768-15.088589c67.438634-6.072237 117.7646 24.656963 157.970171 75.994968 1.564061 2.024079 3.58814 4.048158 1.564061 7.544295-8.096316 16.100629 0 28.705121 10.028392 39.745553 8.096316 8.556334 16.100629 16.100629 12.052471 29.717161a45.449775 45.449775 0 0 1-27.601078 32.661275 276.562803 276.562803 0 0 1-69.462714 13.616532c-2.484097 0-5.520216 1.01204-7.544294-2.484097-9.200359-16.65265-25.208985-20.700809-41.309614-24.196945 3.58814-5.520216 3.58814-6.072237 14.168553-6.532255A49.037916 49.037916 0 0 0 552.021563 475.566577a42.137646 42.137646 0 0 0 4.508176-29.257143 22.540881 22.540881 0 0 0-33.213297-16.560647 70.290746 70.290746 0 0 0-37.721473 46.001797 24.56496 24.56496 0 0 0 4.048158 22.632884c2.024079 1.840072 5.980234 5.336208 0.460018 7.636298z m-154.474034 29.349147h-52.810063a13.892543 13.892543 0 0 1-13.616532-7.544295c-15.088589-22.632884-11.040431-46.001797-3.496137-70.382749 1.472058-4.048158 5.060198-5.060198 8.004313-6.532255a164.87044 164.87044 0 0 1 37.813477-12.144475c6.992273-2.024079 8.556334 0.552022 6.992273 7.084277a111.87637 111.87637 0 0 0-2.024079 28.705121 88.967475 88.967475 0 0 0 19.136748 60.814376z" fill="#FEFEFE" p-id="3885"></path><path d="M490.103145 506.019766c-13.616532-17.572686-14.07655-28.705121-1.01204-49.773944a71.118778 71.118778 0 0 1 33.765319-31.74124 27.601078 27.601078 0 0 1 40.205571 25.392992 53.914106 53.914106 0 0 1-56.3062 56.858221c-3.58814 0-7.544295-3.036119-11.132435 1.01204-2.024079-0.552022-3.956155-1.01204-5.520215-1.564061z" fill="#303030" p-id="3886"></path><path d="M178.670979 610.351842c-0.552022 21.160827-12.604492 36.801438-30.7292 40.297574-4.508176 0-6.532255 0-7.084277-4.508176-4.508176-26.681042-9.200359-53.362084-13.524528-80.503145-0.552022-4.048158-1.01204-6.624259 4.968194-6.072237a51.70602 51.70602 0 0 1 46.001797 50.785984z" fill="#1CD29B" p-id="3887"></path><path d="M670.798203 650.097394c0-11.040431-0.552022-21.620845 0-32.661275 0-8.096316-1.01204-11.592453-10.580413-9.20036-11.592453 2.484097-15.640611-2.024079-14.07655-13.616532a8.280323 8.280323 0 0 1 8.556334-8.004312c22.080863-3.036119 44.253729-6.532255 66.426595-9.20036 4.508176 0 9.200359 0 10.028392 6.072237s1.472058 11.316442-4.324169 14.536568a10.580413 10.580413 0 0 1-3.58814 1.01204c-5.980234 2.024079-14.536568-0.552022-17.572687 5.060197a43.793711 43.793711 0 0 0-1.012039 20.056784v55.202156c0 8.556334 1.01204 18.400719-12.604493 18.400719-17.572686 0-21.068823-2.484097-21.068823-18.400719v-29.257143z" fill="#8CF13C" p-id="3888"></path><path d="M805.12345 584.682839c1.01204-4.968194 2.024079-9.200359 3.496137-14.536568a56.58221 56.58221 0 0 1 36.249416 46.737826 108.472237 108.472237 0 0 1-3.036119 52.350045 57.778257 57.778257 0 0 1-36.801437 35.789398z" fill="#1CD29A" p-id="3889"></path><path d="M189.711411 425.700629c-3.496137-0.460018-5.520216-1.472058-5.060198-4.508176s2.024079-4.048158 5.060198-4.048158a3.404133 3.404133 0 0 1 3.496136 3.496136v0.552022c0.552022 3.036119-1.472058 4.048158-3.496136 4.508176z" fill="#26D691" p-id="3890"></path><path d="M201.763881 337.101168c3.036119 0 4.508176 1.01204 4.508177 3.58814s-1.01204 4.508176-3.956155 4.508176-4.048158-2.024079-4.048158-4.508176 2.024079-4.048158 3.496136-3.58814z" fill="#1DD29A" p-id="3891"></path><path d="M451.369632 637.032884c0-13.06451 1.01204-26.681042 2.024079-39.745552 0-2.484097-1.01204-6.072237 2.484097-7.544295s6.072237 1.01204 8.556334 3.036118A43.701707 43.701707 0 0 1 478.418688 613.38796a69.462713 69.462713 0 0 1-4.048158 51.338006 24.932974 24.932974 0 0 1-9.200359 11.040431c-4.048158 2.576101-8.096316 7.084277-12.604493 4.60018s-1.748068-8.096316-1.748068-12.144475c0.552022-10.580413 1.01204-20.608805 1.01204-31.189218z" fill="#1CD29A" p-id="3892"></path></svg>